{
    "asset": {
        "generator": "Khronos glTF Blender I/O v3.6.27",
        "version": "2.0"
    },
    "scene": 0,
    "scenes": [
        {
            "name": "Scene",
            "nodes": [
                0
            ]
        }
    ],
    "nodes": [
        {
            "mesh": 0,
            "name": "vcbjfbu_LOD0_TIER2_000",
            "rotation": [
                0.7071068286895752,
                0,
                0,
                0.7071068286895752
            ],
            "scale": [
                0.009999999776482582,
                0.009999999776482582,
                0.009999999776482582
            ]
        }
    ],
    "materials": [
        {
            "doubleSided": true,
            "name": "MI_vcbjfbu",
            "normalTexture": {
                "index": 0
            },
            "occlusionTexture": {
                "index": 1
            },
            "pbrMetallicRoughness": {
                "baseColorTexture": {
                    "index": 2
                },
                "metallicRoughnessTexture": {
                    "index": 1
                }
            }
        }
    ],
    "meshes": [
        {
            "name": "S_vcbjfbu_tier_2",
            "primitives": [
                {
                    "attributes": {
                        "POSITION": 0,
                        "NORMAL": 1,
                        "TEXCOORD_0": 2,
                        "TANGENT": 3
                    },
                    "indices": 4,
                    "material": 0
                }
            ]
        }
    ],
    "textures": [
        {
            "sampler": 0,
            "source": 0
        },
        {
            "sampler": 0,
            "source": 1
        },
        {
            "sampler": 0,
            "source": 2
        }
    ],
    "images": [
        {
            "mimeType": "image/png",
            "name": "T_vcbjfbu_2K_N",
            "uri": "T_vcbjfbu_2K_N.png"
        },
        {
            "mimeType": "image/png",
            "name": "T_vcbjfbu_2K_ORM",
            "uri": "T_vcbjfbu_2K_ORM.png",
            "extras": {
                "compression": "mask"
            }
        },
        {
            "mimeType": "image/png",
            "name": "T_vcbjfbu_2K_B",
            "uri": "T_vcbjfbu_2K_B.png"
        }
    ],
    "accessors": [
        {
            "bufferView": 0,
            "componentType": 5126,
            "count": 756,
            "max": [
                3.983704090118408,
                4.187453269958496,
                0.048040721565485
            ],
            "min": [
                -4.025987148284912,
                -4.282588005065918,
                -3.2882742881774902
            ],
            "type": "VEC3"
        },
        {
            "bufferView": 1,
            "componentType": 5126,
            "count": 756,
            "type": "VEC3"
        },
        {
            "bufferView": 2,
            "componentType": 5126,
            "count": 756,
            "type": "VEC2"
        },
        {
            "bufferView": 3,
            "componentType": 5126,
            "count": 756,
            "type": "VEC4"
        },
        {
            "bufferView": 4,
            "componentType": 5123,
            "count": 3684,
            "type": "SCALAR"
        }
    ],
    "bufferViews": [
        {
            "buffer": 0,
            "byteLength": 9072,
            "byteOffset": 0,
            "target": 34962
        },
        {
            "buffer": 0,
            "byteLength": 9072,
            "byteOffset": 9072,
            "target": 34962
        },
        {
            "buffer": 0,
            "byteLength": 6048,
            "byteOffset": 18144,
            "target": 34962
        },
        {
            "buffer": 0,
            "byteLength": 12096,
            "byteOffset": 24192,
            "target": 34962
        },
        {
            "buffer": 0,
            "byteLength": 7368,
            "byteOffset": 36288,
            "target": 34963
        }
    ],
    "samplers": [
        {
            "magFilter": 9729,
            "minFilter": 9987
        }
    ],
    "buffers": [
        {
            "byteLength": 43656,
            "uri": "vcbjfbu_tier_2.bin"
        }
    ]
}
